<svg width="40" height="40" viewBox="0 0 40 40" fill="none" xmlns="http://www.w3.org/2000/svg">
<path d="M19.9996 10.6625C19.7702 10.66 19.5467 10.5898 19.3572 10.4605C19.1677 10.3313 19.0206 10.1489 18.9346 9.93628C18.8485 9.72365 18.8272 9.49032 18.8735 9.26565C18.9197 9.04097 19.0314 8.83501 19.1945 8.67367C19.3576 8.51234 19.5647 8.40286 19.7899 8.35901C20.015 8.31516 20.2481 8.3389 20.4598 8.42724C20.6715 8.51558 20.8523 8.66458 20.9795 8.85547C21.1067 9.04636 21.1746 9.27062 21.1746 9.5C21.1746 9.65372 21.1441 9.80592 21.0849 9.94778C21.0257 10.0896 20.939 10.2184 20.8297 10.3265C20.7204 10.4346 20.5908 10.5199 20.4483 10.5776C20.3058 10.6353 20.1533 10.6642 19.9996 10.6625Z" fill="black" fill-opacity="0.7"/>
<path d="M22.3125 32.8375H5.9875C5.67919 32.8375 5.3835 32.715 5.16549 32.497C4.94748 32.279 4.825 31.9833 4.825 31.675V8.3375C4.825 8.02919 4.94748 7.7335 5.16549 7.51549C5.3835 7.29748 5.67919 7.175 5.9875 7.175H33.9875C34.2958 7.175 34.5915 7.29748 34.8095 7.51549C35.0275 7.7335 35.15 8.02919 35.15 8.3375V11.8375H8.325C8.01503 11.8375 7.71775 11.9606 7.49857 12.1798C7.27939 12.399 7.15625 12.6963 7.15625 13.0063C7.15625 13.3162 7.27939 13.6135 7.49857 13.8327C7.71775 14.0519 8.01503 14.175 8.325 14.175H35.1625V20C35.1625 20.31 35.2856 20.6072 35.5048 20.8264C35.724 21.0456 36.0213 21.1688 36.3312 21.1688C36.6412 21.1688 36.9385 21.0456 37.1577 20.8264C37.3769 20.6072 37.5 20.31 37.5 20V8.3375C37.5 7.87788 37.4095 7.42275 37.2336 6.99811C37.0577 6.57347 36.7999 6.18763 36.4749 5.86263C36.1499 5.53762 35.764 5.27982 35.3394 5.10392C34.9148 4.92803 34.4596 4.8375 34 4.8375H5.9875C5.06141 4.84081 4.17438 5.21102 3.5207 5.86704C2.86703 6.52306 2.49999 7.41141 2.5 8.3375V31.6625C2.5 32.5908 2.86875 33.481 3.52513 34.1374C4.1815 34.7938 5.07174 35.1625 6 35.1625H22.3125C22.6225 35.1625 22.9197 35.0394 23.1389 34.8202C23.3581 34.601 23.4813 34.3037 23.4813 33.9938C23.4813 33.6838 23.3581 33.3865 23.1389 33.1673C22.9197 32.9481 22.6225 32.825 22.3125 32.825V32.8375Z" fill="black" fill-opacity="0.7"/>
<path d="M36.3371 25.825H34.4871L34.8246 25.4875C35.0434 25.2687 35.1663 24.9719 35.1663 24.6625C35.1663 24.3531 35.0434 24.0563 34.8246 23.8375C34.6058 23.6187 34.309 23.4958 33.9996 23.4958C33.6902 23.4958 33.3934 23.6187 33.1746 23.8375L31.6621 25.35L30.1621 23.85C30.0538 23.7408 29.925 23.6541 29.7831 23.5947C29.6413 23.5353 29.4891 23.5044 29.3353 23.5039C29.1815 23.5033 29.0291 23.533 28.8868 23.5913C28.7445 23.6496 28.615 23.7354 28.5059 23.8438C28.3967 23.9521 28.3099 24.0809 28.2506 24.2227C28.1912 24.3646 28.1603 24.5168 28.1597 24.6706C28.1591 24.8244 28.1889 24.9768 28.2472 25.1191C28.3055 25.2614 28.3913 25.3908 28.4996 25.5L28.8371 25.8375H27.0121C26.7038 25.8375 26.4081 25.96 26.1901 26.178C25.9721 26.396 25.8496 26.6917 25.8496 27V34C25.8496 34.3083 25.9721 34.604 26.1901 34.822C26.4081 35.04 26.7038 35.1625 27.0121 35.1625H36.3496C36.6558 35.1592 36.9482 35.0353 37.1636 34.8176C37.3789 34.6 37.4996 34.3062 37.4996 34V27C37.5013 26.8463 37.4724 26.6938 37.4147 26.5513C37.3571 26.4088 37.2717 26.2792 37.1636 26.1699C37.0555 26.0606 36.9267 25.9739 36.7849 25.9147C36.643 25.8555 36.4908 25.825 36.3371 25.825ZM28.1746 28.1625H30.4871V32.825H28.1746V28.1625ZM35.1746 32.825H32.8246V28.1625H35.1746V32.825Z" fill="black" fill-opacity="0.7"/>
<path d="M14.1621 16.4875C14.1621 16.1792 14.0396 15.8835 13.8216 15.6655C13.6036 15.4475 13.3079 15.325 12.9996 15.325H8.32461C8.0163 15.325 7.72061 15.4475 7.5026 15.6655C7.28459 15.8835 7.16211 16.1792 7.16211 16.4875V21.15C7.16211 21.4583 7.28459 21.754 7.5026 21.972C7.72061 22.19 8.0163 22.3125 8.32461 22.3125H12.9996C13.3079 22.3125 13.6036 22.19 13.8216 21.972C14.0396 21.754 14.1621 21.4583 14.1621 21.15V16.4875ZM11.8246 20H9.49961V17.6625H11.8246V20Z" fill="black" fill-opacity="0.7"/>
<path d="M12.9996 23.5H8.32461C8.0163 23.5 7.72061 23.6225 7.5026 23.8405C7.28459 24.0585 7.16211 24.3542 7.16211 24.6625V29.325C7.16211 29.6333 7.28459 29.929 7.5026 30.147C7.72061 30.365 8.0163 30.4875 8.32461 30.4875H12.9996C13.3079 30.4875 13.6036 30.365 13.8216 30.147C14.0396 29.929 14.1621 29.6333 14.1621 29.325V24.6625C14.1621 24.3542 14.0396 24.0585 13.8216 23.8405C13.6036 23.6225 13.3079 23.5 12.9996 23.5ZM11.8371 28.1625H9.49961V25.825H11.8246L11.8371 28.1625Z" fill="black" fill-opacity="0.7"/>
<path d="M22.3375 15.325H17.6625C17.3542 15.325 17.0585 15.4475 16.8405 15.6655C16.6225 15.8835 16.5 16.1792 16.5 16.4875V21.15C16.5 21.4583 16.6225 21.754 16.8405 21.972C17.0585 22.19 17.3542 22.3125 17.6625 22.3125H22.325C22.6333 22.3125 22.929 22.19 23.147 21.972C23.365 21.754 23.4875 21.4583 23.4875 21.15V16.4875C23.4875 16.1813 23.3668 15.8875 23.1514 15.6699C22.9361 15.4522 22.6436 15.3283 22.3375 15.325ZM21.1625 20H18.8375V17.6625H21.175L21.1625 20Z" fill="black" fill-opacity="0.7"/>
<path d="M27.0004 21.1625C27.3087 21.1625 27.6044 21.04 27.8224 20.822C28.0404 20.604 28.1629 20.3083 28.1629 20V17.6625H30.5004V20C30.5004 20.31 30.6235 20.6072 30.8427 20.8264C31.0619 21.0456 31.3592 21.1688 31.6691 21.1688C31.9791 21.1688 32.2764 21.0456 32.4956 20.8264C32.7148 20.6072 32.8379 20.31 32.8379 20V16.5C32.8379 16.1917 32.7154 15.896 32.4974 15.678C32.2794 15.46 31.9837 15.3375 31.6754 15.3375H27.0004C26.6921 15.3375 26.3964 15.46 26.1784 15.678C25.9604 15.896 25.8379 16.1917 25.8379 16.5V20C25.8379 20.3083 25.9604 20.604 26.1784 20.822C26.3964 21.04 26.6921 21.1625 27.0004 21.1625Z" fill="black" fill-opacity="0.7"/>
<path d="M22.3375 23.5H17.6625C17.3542 23.5 17.0585 23.6225 16.8405 23.8405C16.6225 24.0585 16.5 24.3542 16.5 24.6625V29.325C16.5 29.6333 16.6225 29.929 16.8405 30.147C17.0585 30.365 17.3542 30.4875 17.6625 30.4875H22.325C22.6333 30.4875 22.929 30.365 23.147 30.147C23.365 29.929 23.4875 29.6333 23.4875 29.325V24.6625C23.4875 24.3563 23.3668 24.0625 23.1514 23.8449C22.9361 23.6272 22.6436 23.5033 22.3375 23.5ZM21.175 28.1625H18.8375V25.825H21.175V28.1625Z" fill="black" fill-opacity="0.7"/>
</svg>
