<svg width="40" height="36" viewBox="0 0 40 36" fill="none" xmlns="http://www.w3.org/2000/svg">
<path d="M28.125 0.5C28.6223 0.5 29.0992 0.697544 29.4508 1.04917C29.8025 1.40081 30 1.87772 30 2.375C30 2.87228 29.8025 3.34919 29.4508 3.70083C29.0992 4.05246 28.6223 4.25 28.125 4.25H5.625C5.12772 4.25 4.65081 4.44754 4.29918 4.79917C3.94754 5.1508 3.75 5.62772 3.75 6.125V22.4525L5.515 21.1775C5.91814 20.9023 6.41268 20.7952 6.89354 20.8789C7.3744 20.9626 7.80366 21.2305 8.09012 21.6257C8.37658 22.0209 8.49765 22.5122 8.42761 22.9952C8.35756 23.4783 8.10191 23.915 7.715 24.2125L2.975 27.645C2.69504 27.8478 2.36446 27.9693 2.01978 27.996C1.67511 28.0227 1.32977 27.9536 1.02191 27.7963C0.714063 27.639 0.455689 27.3996 0.275346 27.1047C0.0950027 26.8098 -0.000289183 26.4707 6.59224e-07 26.125V6.125C6.59224e-07 4.63316 0.592633 3.20242 1.64752 2.14752C2.70242 1.09263 4.13316 0.5 5.625 0.5H28.125Z" fill="black" fill-opacity="0.7"/>
<path fill-rule="evenodd" clip-rule="evenodd" d="M15.625 8C14.1332 8 12.7024 8.59263 11.6475 9.64752C10.5926 10.7024 10 12.1332 10 13.625V24.96C10 26.4518 10.5926 27.8826 11.6475 28.9375C12.7024 29.9924 14.1332 30.585 15.625 30.585H30.7275L37.0275 35.145C37.3075 35.3471 37.6378 35.468 37.9821 35.4943C38.3264 35.5206 38.6712 35.4514 38.9787 35.2942C39.2861 35.137 39.5441 34.8979 39.7243 34.6034C39.9046 34.3089 40 33.9703 40 33.625V13.625C40 12.1332 39.4074 10.7024 38.3525 9.64752C37.2976 8.59263 35.8668 8 34.375 8H15.625ZM13.75 13.625C13.75 13.1277 13.9475 12.6508 14.2992 12.2992C14.6508 11.9475 15.1277 11.75 15.625 11.75H34.375C34.8723 11.75 35.3492 11.9475 35.7008 12.2992C36.0525 12.6508 36.25 13.1277 36.25 13.625V29.9525L32.435 27.1925C32.1152 26.9604 31.7302 26.8353 31.335 26.835H15.625C15.1277 26.835 14.6508 26.6375 14.2992 26.2858C13.9475 25.9342 13.75 25.4573 13.75 24.96V13.625Z" fill="black" fill-opacity="0.7"/>
</svg>
