<svg width="30" height="29" viewBox="0 0 30 29" fill="none" xmlns="http://www.w3.org/2000/svg">
<path d="M28.675 11.6875L18.6063 1.61875C16.4688 -0.51875 13.0375 -0.51875 10.9 1.61875L0.775 11.6875C0.325 12.1375 0.325 12.8687 0.775 13.375C1.225 13.825 1.95625 13.825 2.4625 13.375L3.19375 12.6438V25.4125C3.19375 27.6062 4.825 28.9562 7.525 28.9562C10.1125 28.9562 11.9688 27.4937 11.9688 25.4125V18.0438C11.9688 17.3125 12.3062 16.075 14.725 16.075C17.1437 16.075 17.4813 17.3125 17.4813 18.0438V25.4125C17.4813 26.3125 17.8188 27.1 18.4375 27.7187C19.225 28.5062 20.4625 28.9562 21.925 28.9562C24.625 28.9562 26.2563 27.6062 26.2563 25.4125V12.6438L26.9875 13.375C27.2125 13.6 27.4937 13.7125 27.8312 13.7125C28.1125 13.7125 28.45 13.6 28.675 13.375C29.125 12.925 29.125 12.1938 28.675 11.6875ZM23.8938 25.4125C23.8938 26.2 23.2188 26.5938 21.925 26.5938C21.1375 26.5938 20.4625 26.3687 20.125 26.0312C19.9562 25.8625 19.9 25.6375 19.9 25.3562V18.0438C19.9 15.4 17.875 13.7125 14.7812 13.7125C11.6875 13.7125 9.6625 15.4 9.6625 18.0438V25.4125C9.6625 26.5938 7.69375 26.5938 7.58125 26.5938C5.6125 26.5938 5.6125 25.75 5.6125 25.4125V10.2812L12.5875 3.30625C13.15 2.74375 13.9375 2.40625 14.7812 2.40625C15.625 2.40625 16.4125 2.74375 16.975 3.30625L23.95 10.2812L23.8938 25.4125Z" fill="black"/>
</svg>
