<svg width="30" height="38" viewBox="0 0 30 38" fill="none" xmlns="http://www.w3.org/2000/svg">
<path d="M15 17.3333C16.6482 17.3333 18.2593 16.8446 19.6298 15.9289C21.0002 15.0132 22.0683 13.7117 22.699 12.189C23.3297 10.6663 23.4948 8.99075 23.1732 7.37424C22.8517 5.75773 22.058 4.27287 20.8926 3.10744C19.7271 1.942 18.2423 1.14833 16.6258 0.826783C15.0092 0.505239 13.3337 0.670267 11.811 1.301C10.2883 1.93173 8.98676 2.99983 8.07109 4.37024C7.15541 5.74065 6.66667 7.35182 6.66667 8.99999C6.66931 11.2093 7.54814 13.3274 9.11037 14.8896C10.6726 16.4519 12.7907 17.3307 15 17.3333ZM15 3.99999C15.9889 3.99999 16.9556 4.29324 17.7779 4.84265C18.6001 5.39205 19.241 6.17295 19.6194 7.08658C19.9978 8.00021 20.0969 9.00554 19.9039 9.97545C19.711 10.9454 19.2348 11.8363 18.5355 12.5355C17.8363 13.2348 16.9454 13.711 15.9755 13.9039C15.0055 14.0968 14.0002 13.9978 13.0866 13.6194C12.173 13.241 11.3921 12.6001 10.8427 11.7778C10.2932 10.9556 10 9.9889 10 8.99999C10 7.67391 10.5268 6.40214 11.4645 5.46446C12.4021 4.52678 13.6739 3.99999 15 3.99999ZM0 35.6667V29C0.00264643 26.7907 0.88147 24.6726 2.4437 23.1104C4.00593 21.5481 6.12401 20.6693 8.33333 20.6667H21.6667C23.876 20.6693 25.9941 21.5481 27.5563 23.1104C29.1185 24.6726 29.9974 26.7907 30 29V35.6667C30 36.1087 29.8244 36.5326 29.5118 36.8452C29.1993 37.1577 28.7754 37.3333 28.3333 37.3333C27.8913 37.3333 27.4674 37.1577 27.1548 36.8452C26.8423 36.5326 26.6667 36.1087 26.6667 35.6667V29C26.6667 27.6739 26.1399 26.4021 25.2022 25.4645C24.2645 24.5268 22.9927 24 21.6667 24H8.33333C7.00725 24 5.73548 24.5268 4.7978 25.4645C3.86012 26.4021 3.33333 27.6739 3.33333 29V35.6667C3.33333 36.1087 3.15774 36.5326 2.84518 36.8452C2.53262 37.1577 2.10869 37.3333 1.66667 37.3333C1.22464 37.3333 0.800716 37.1577 0.488155 36.8452C0.175595 36.5326 0 36.1087 0 35.6667Z" fill="black" fill-opacity="0.7"/>
</svg>
