<svg width="72" height="85" viewBox="0 0 72 85" fill="none" xmlns="http://www.w3.org/2000/svg">
<path d="M1.96493 70.0351C0.574844 71.4252 0.565926 73.6919 2.06742 74.9608C7.5492 79.5935 14.1315 82.7757 21.2087 84.1834C29.4529 85.8232 37.9982 84.9816 45.764 81.7649C53.5299 78.5482 60.1675 73.1008 64.8375 66.1117C69.5074 59.1226 72 50.9057 72 42.5C72 34.0943 69.5074 25.8774 64.8375 18.8883C60.1675 11.8992 53.5299 6.45184 45.764 3.23512C37.9982 0.0183954 29.4529 -0.823246 21.2087 0.816626C14.1315 2.22435 7.5492 5.40647 2.06742 10.0392C0.565928 11.3081 0.574844 13.5748 1.96493 14.9649C3.35501 16.355 5.59853 16.339 7.12119 15.0956C11.5913 11.4452 16.9019 8.93181 22.5975 7.79888C29.4608 6.4337 36.5747 7.13436 43.0397 9.81226C49.5047 12.4902 55.0305 17.025 58.9182 22.8434C62.8059 28.6618 64.881 35.5023 64.881 42.5C64.881 49.4977 62.8059 56.3382 58.9182 62.1566C55.0305 67.975 49.5047 72.5098 43.0397 75.1877C36.5747 77.8656 29.4608 78.5663 22.5975 77.2011C16.9019 76.0682 11.5913 73.5548 7.12119 69.9044C5.59852 68.661 3.35501 68.645 1.96493 70.0351Z" fill="black" fill-opacity="0.99"/>
</svg>
