<svg width="35" height="35" viewBox="0 0 35 35" fill="none" xmlns="http://www.w3.org/2000/svg">
<g clip-path="url(#clip0_781_344)">
<path d="M31.34 16.9725H2.41V28.27C2.41 28.6015 2.5417 28.9195 2.77612 29.1539C3.01054 29.3883 3.32848 29.52 3.66 29.52H27.585C27.7492 29.52 27.9117 29.5523 28.0634 29.6151C28.2151 29.6779 28.3529 29.77 28.469 29.886C28.5851 30.0021 28.6772 30.1399 28.74 30.2916C28.8029 30.4433 28.8352 30.6058 28.8352 30.77C28.8352 30.9342 28.8029 31.0967 28.74 31.2484C28.6772 31.4001 28.5851 31.5379 28.469 31.654C28.3529 31.77 28.2151 31.8621 28.0634 31.9249C27.9117 31.9877 27.7492 32.02 27.585 32.02H2.5C1.83696 32.02 1.20107 31.7566 0.732233 31.2878C0.263392 30.8189 0 30.183 0 29.52L0 3.2225C0 2.55946 0.263392 1.92357 0.732233 1.45473C1.20107 0.985892 1.83696 0.7225 2.5 0.7225H11.1C11.4313 0.722559 11.7592 0.78845 12.0648 0.916344C12.3703 1.04424 12.6475 1.23159 12.88 1.4675L16.705 5.35C16.8213 5.46796 16.9598 5.56163 17.1126 5.62558C17.2654 5.68953 17.4294 5.72247 17.595 5.7225H31.25C31.5783 5.7225 31.9034 5.78716 32.2067 5.9128C32.51 6.03844 32.7856 6.22259 33.0178 6.45473C33.2499 6.68688 33.4341 6.96248 33.5597 7.26579C33.6853 7.56911 33.75 7.8942 33.75 8.2225V26.0475C33.75 26.3671 33.623 26.6736 33.3971 26.8996C33.1711 27.1255 32.8646 27.2525 32.545 27.2525C32.2254 27.2525 31.9189 27.1255 31.6929 26.8996C31.467 26.6736 31.34 26.3671 31.34 26.0475V16.9725ZM31.34 14.4725V9.4725C31.34 9.14098 31.2083 8.82304 30.9739 8.58862C30.7395 8.3542 30.4215 8.2225 30.09 8.2225H17.135C16.8033 8.22277 16.4749 8.15704 16.1689 8.02914C15.8629 7.90123 15.5853 7.71371 15.3525 7.4775L11.5275 3.595C11.4115 3.47734 11.2734 3.38384 11.121 3.3199C10.9687 3.25597 10.8052 3.22286 10.64 3.2225H3.66C3.32848 3.2225 3.01054 3.3542 2.77612 3.58862C2.5417 3.82304 2.41 4.14098 2.41 4.4725V14.4725H31.34Z" fill="black" fill-opacity="0.7"/>
</g>
<defs>
<clipPath id="clip0_781_344">
<rect width="35" height="35" fill="white"/>
</clipPath>
</defs>
</svg>
